<?xml version="1.0" encoding="UTF-8" standalone="no"?><!DOCTYPE svg PUBLIC "-//W3C//DTD SVG 1.1//EN" "http://www.w3.org/Graphics/SVG/1.1/DTD/svg11.dtd"><svg width="100%" height="100%" viewBox="0 0 1045 548" version="1.1" xmlns="http://www.w3.org/2000/svg" xmlns:xlink="http://www.w3.org/1999/xlink" xml:space="preserve" xmlns:serif="http://www.serif.com/" style="fill-rule:evenodd;clip-rule:evenodd;stroke-linejoin:round;stroke-miterlimit:2;"><g><g id="moon"><path d="M264.262,0.678C409.828,0.678 283.642,116.925 283.642,262.491C283.642,408.057 409.828,528.173 264.262,528.173C118.696,528.173 0.515,409.991 0.515,264.425C0.515,118.859 118.696,0.678 264.262,0.678Z" style="fill:url(#_Radial1);"/></g><g id="text-90-" serif:id="text 90%" opacity="0.9"><g id="text-symbol" serif:id="text symbol"><g id="text"><path d="M327.994,78.903C328.992,80.386 329.793,81.97 330.397,83.655C332.106,88.423 332.961,92.875 332.961,97.013C332.961,106.187 330.307,113.518 325,119.005C321.587,122.534 317.337,124.928 312.25,126.187C318.178,109.01 323.867,93.152 327.994,78.903ZM307.67,139.64L329.992,131.822L329.992,267.824L343.485,267.824L343.485,272.141L283.824,272.141C283.704,268.938 283.642,265.721 283.642,262.491C283.642,217.969 295.447,176.189 307.67,139.64Z" style="fill:white;fill-rule:nonzero;"/><path d="M353.469,272.141L353.469,267.824L366.961,267.824L366.961,107.267L351.58,94.044L420.93,69.758L420.93,267.824L434.422,267.824L434.422,272.141L353.469,272.141Z" style="fill:white;fill-rule:nonzero;"/><path d="M484.883,127.235C475.528,127.235 468.197,124.492 462.891,119.005C457.584,113.518 454.93,106.187 454.93,97.013C454.93,88.018 457.584,80.777 462.891,75.29C468.197,69.803 475.528,67.06 484.883,67.06C491.719,67.06 497.565,68.634 502.423,71.782C507.28,74.93 510.563,78.888 512.272,83.655C513.981,88.423 514.835,92.875 514.835,97.013C514.835,106.187 512.182,113.518 506.875,119.005C501.568,124.492 494.237,127.235 484.883,127.235ZM444.406,272.141L444.406,267.824L457.898,267.824L457.898,169.331L442.517,156.108L511.867,131.822L511.867,267.824L525.359,267.824L525.359,272.141L444.406,272.141Z" style="fill:white;fill-rule:nonzero;"/><path d="M649.757,134.521C663.789,134.521 675.303,140.143 684.297,151.386C693.292,162.63 697.79,178.326 697.79,198.474C697.79,209.987 696.26,220.511 693.202,230.046C690.144,239.58 685.782,247.675 680.115,254.332C674.448,260.988 667.792,266.07 660.146,269.578C652.501,273.086 644.181,274.84 635.186,274.84C629.609,274.84 623.942,273.94 618.186,272.141C612.429,270.342 607.302,268.004 602.805,265.125L602.805,335.285L624.392,335.285L624.392,339.602L535.344,339.602L535.344,335.285L548.836,335.285L548.836,169.331L533.455,156.108L602.805,131.822L602.805,158.537C610,151.161 617.736,145.315 626.011,140.997C634.286,136.68 642.202,134.521 649.757,134.521ZM616.027,264.586C623.223,264.586 629.024,260.088 633.432,251.093C637.839,242.099 640.043,229.686 640.043,213.855C640.043,195.686 637.929,182.103 633.702,173.109C629.474,164.114 622.953,159.616 614.138,159.616C610.72,159.616 606.942,160.516 602.805,162.315L602.805,260.538C606.582,263.236 610.99,264.586 616.027,264.586Z" style="fill:white;fill-rule:nonzero;"/><path d="M826.775,134.521C840.807,134.521 852.32,140.143 861.315,151.386C870.31,162.63 874.807,178.326 874.807,198.474C874.807,209.987 873.278,220.511 870.22,230.046C867.162,239.58 862.799,247.675 857.132,254.332C851.466,260.988 844.809,266.07 837.164,269.578C829.518,273.086 821.198,274.84 812.203,274.84C806.627,274.84 800.96,273.94 795.203,272.141C789.447,270.342 784.32,268.004 779.822,265.125L779.822,335.285L801.41,335.285L801.41,339.602L712.361,339.602L712.361,335.285L725.853,335.285L725.853,169.331L710.472,156.108L779.822,131.822L779.822,158.537C787.018,151.161 794.753,145.315 803.029,140.997C811.304,136.68 819.219,134.521 826.775,134.521ZM793.044,264.586C800.24,264.586 806.042,260.088 810.449,251.093C814.857,242.099 817.061,229.686 817.061,213.855C817.061,195.686 814.947,182.103 810.719,173.109C806.492,164.114 799.97,159.616 791.156,159.616C787.738,159.616 783.96,160.516 779.822,162.315L779.822,260.538C783.6,263.236 788.007,264.586 793.044,264.586Z" style="fill:white;fill-rule:nonzero;"/><path d="M968.173,274.84C958.639,274.84 949.329,273.176 940.244,269.848C931.16,266.52 923.154,261.707 916.228,255.411C909.302,249.115 903.815,241.559 899.768,232.744C895.72,223.929 893.696,214.305 893.696,203.871C893.696,194.516 895.495,185.566 899.093,177.021C902.691,168.476 907.818,161.056 914.474,154.759C921.13,148.463 929.046,143.516 938.22,139.918C947.395,136.32 957.289,134.521 967.903,134.521C978.877,134.521 989.086,136.14 998.531,139.378C1007.98,142.616 1016.12,147.294 1022.95,153.41C1029.79,159.526 1035.09,166.902 1038.87,175.537C1042.65,184.172 1044.54,193.617 1044.54,203.871C1044.54,213.765 1042.92,223.03 1039.68,231.665C1036.44,240.3 1031.63,247.855 1025.25,254.332C1018.86,260.808 1010.81,265.845 1001.09,269.443C991.38,273.041 980.406,274.84 968.173,274.84ZM998.396,265.125C1005.77,265.125 1009.46,260.538 1009.46,251.363C1009.46,245.787 1006.99,237.107 1002.04,225.323C997.091,213.54 990.885,201.352 983.419,188.76C975.954,176.167 968.308,165.598 960.483,157.053C952.657,148.508 945.956,144.235 940.379,144.235C936.961,144.235 934.308,145.405 932.419,147.743C930.53,150.082 929.585,153.32 929.585,157.458C929.585,163.754 932.104,172.929 937.141,184.982C942.178,197.035 948.474,209.223 956.03,221.546C963.586,233.868 971.231,244.212 978.967,252.578C986.702,260.943 993.179,265.125 998.396,265.125Z" style="fill:white;fill-rule:nonzero;"/><path d="M249.165,527.747C247.097,529.362 244.941,530.915 242.698,532.406C227.677,542.39 210.002,547.382 189.674,547.382C175.462,547.382 161.97,544.818 149.197,539.691C136.425,534.564 125.361,527.324 116.006,517.969C106.652,508.614 99.366,497.551 94.149,484.778C90.911,476.852 88.678,468.613 87.45,460.063C118.939,488.543 157.325,509.536 199.788,520.221C202.033,522.024 204.193,523.567 206.269,524.85C214.274,529.797 221.066,532.271 226.642,532.271C232.47,532.271 236.909,530.536 239.961,527.066C243.014,527.345 246.082,527.572 249.165,527.747Z" style="fill:white;fill-rule:nonzero;"/><path d="M318.958,419.529L367.501,403.285L367.501,437.016C375.056,427.122 382.972,419.161 391.247,413.135C399.522,407.108 406.718,404.095 412.835,404.095C414.633,404.095 416.343,404.365 417.962,404.904L417.962,476.413L417.692,476.413C405.998,463.461 396.149,453.926 388.144,447.81C380.138,441.693 373.257,439.085 367.501,439.984L367.501,537.668L387.739,537.668L387.739,541.985L300.04,541.985L300.04,537.668L313.532,537.668L313.532,520.021C345.318,504.617 335.473,468.347 318.958,419.529Z" style="fill:white;fill-rule:nonzero;"/><path d="M542.899,404.095C544.698,404.095 546.407,404.365 548.026,404.904L548.026,476.413L547.756,476.413C536.063,463.461 526.214,453.926 518.209,447.81C510.203,441.693 503.322,439.085 497.565,439.984L497.565,537.668L517.804,537.668L517.804,541.985L430.105,541.985L430.105,537.668L443.597,537.668L443.597,439.714L428.216,426.492L497.565,403.285L497.565,437.016C505.121,427.122 513.037,419.161 521.312,413.135C529.587,407.108 536.783,404.095 542.899,404.095Z" style="fill:white;fill-rule:nonzero;"/><path d="M708.853,537.668L722.345,537.668L722.345,541.985L654.884,541.985L654.884,521.207C641.212,531.101 631.048,537.533 624.392,540.501C617.736,543.469 611.799,544.953 606.582,544.953C594.529,544.953 585.714,541.265 580.138,533.89C574.561,526.514 571.773,514.821 571.773,498.81L571.773,440.794L556.391,427.571L625.741,403.285L625.741,488.016C625.741,499.889 626.731,508.12 628.71,512.707C630.688,517.294 634.826,519.588 641.122,519.588C645.26,519.588 649.847,518.689 654.884,516.89L654.884,439.444L639.503,426.222L708.853,401.936L708.853,537.668Z" style="fill:white;fill-rule:nonzero;"/></g></g></g><path d="M312.25,126.187C309.427,126.886 306.346,127.235 303.008,127.235C293.654,127.235 286.323,124.492 281.016,119.005C275.709,113.518 273.055,106.187 273.055,97.013C273.055,88.018 275.709,80.777 281.016,75.29C286.323,69.803 293.654,67.06 303.008,67.06C309.844,67.06 315.691,68.634 320.548,71.782C323.688,73.817 326.17,76.191 327.994,78.903C323.867,93.152 318.178,109.01 312.25,126.187ZM283.824,272.141L262.532,272.141L262.532,267.824L276.024,267.824L276.024,169.331L260.643,156.108L307.67,139.64C295.447,176.189 283.642,217.969 283.642,262.491C283.642,265.721 283.704,268.938 283.824,272.141ZM313.532,520.021L313.532,439.714L298.151,426.492L318.958,419.529C335.473,468.347 345.318,504.617 313.532,520.021ZM87.45,460.063C86.699,454.836 86.324,449.492 86.324,444.032C86.324,427.301 89.966,411.156 97.252,395.595C104.538,380.034 115.692,367.261 130.713,357.277C145.734,347.293 163.409,342.301 183.737,342.301C198.129,342.301 211.666,344.909 224.349,350.126C237.031,355.343 248.05,362.629 257.405,371.983C266.759,381.338 274,392.357 279.127,405.039C284.254,417.722 286.817,431.259 286.817,445.651C286.817,462.381 283.22,478.527 276.024,494.088C269.902,507.325 260.949,518.545 249.165,527.747C246.082,527.572 243.014,527.345 239.961,527.066C243.315,523.251 244.992,517.341 244.992,509.334C244.992,499.08 243.103,487.477 239.325,474.524C235.547,461.572 230.465,448.709 224.079,435.936C217.692,423.164 210.092,410.751 201.277,398.698C192.462,386.645 183.152,376.751 173.348,369.015C163.544,361.28 154.594,357.412 146.499,357.412C141.102,357.412 136.739,359.436 133.411,363.483C130.083,367.531 128.419,373.153 128.419,380.349C128.419,390.603 130.353,402.206 134.221,415.158C138.089,428.111 143.8,442.053 151.356,456.984C158.912,471.916 167.951,485.723 178.475,498.405C186.27,507.799 193.374,515.071 199.788,520.221C157.325,509.536 118.939,488.543 87.45,460.063ZM247.96,77.854L247.96,140.188L247.69,140.188C233.478,119.32 220.346,104.433 208.293,95.528C196.24,86.624 183.018,82.171 168.626,82.171L167.277,82.171L167.277,169.601C170.875,169.241 175.507,167.847 181.174,165.418C186.84,162.989 192.777,159.167 198.983,153.95C205.19,148.733 209.912,143.426 213.15,138.029L213.42,138.029L213.42,205.22L213.15,205.22C211.171,201.802 207.888,197.799 203.301,193.212C198.713,188.625 192.957,184.397 186.031,180.529C179.105,176.662 172.853,174.458 167.277,173.918L167.277,267.824L198.309,267.824L198.309,272.141L86.324,272.141L86.324,267.824L107.911,267.824L107.911,92.425L83.895,77.854L247.96,77.854Z" style="fill:url(#_Radial2);"/><g id="text-symbol1" serif:id="text symbol"><g id="text1" serif:id="text"><path d="M327.994,78.903C328.992,80.386 329.793,81.97 330.397,83.655C332.106,88.423 332.961,92.875 332.961,97.013C332.961,106.187 330.307,113.518 325,119.005C321.587,122.534 317.337,124.928 312.25,126.187C318.178,109.01 323.867,93.152 327.994,78.903ZM307.67,139.64L329.992,131.822L329.992,267.824L343.485,267.824L343.485,272.141L283.824,272.141C283.704,268.938 283.642,265.721 283.642,262.491C283.642,217.969 295.447,176.189 307.67,139.64Z" style="fill:white;fill-rule:nonzero;"/><path d="M353.469,272.141L353.469,267.824L366.961,267.824L366.961,107.267L351.58,94.044L420.93,69.758L420.93,267.824L434.422,267.824L434.422,272.141L353.469,272.141Z" style="fill:white;fill-rule:nonzero;"/><path d="M484.883,127.235C475.528,127.235 468.197,124.492 462.891,119.005C457.584,113.518 454.93,106.187 454.93,97.013C454.93,88.018 457.584,80.777 462.891,75.29C468.197,69.803 475.528,67.06 484.883,67.06C491.719,67.06 497.565,68.634 502.423,71.782C507.28,74.93 510.563,78.888 512.272,83.655C513.981,88.423 514.835,92.875 514.835,97.013C514.835,106.187 512.182,113.518 506.875,119.005C501.568,124.492 494.237,127.235 484.883,127.235ZM444.406,272.141L444.406,267.824L457.898,267.824L457.898,169.331L442.517,156.108L511.867,131.822L511.867,267.824L525.359,267.824L525.359,272.141L444.406,272.141Z" style="fill:white;fill-rule:nonzero;"/><path d="M649.757,134.521C663.789,134.521 675.303,140.143 684.297,151.386C693.292,162.63 697.79,178.326 697.79,198.474C697.79,209.987 696.26,220.511 693.202,230.046C690.144,239.58 685.782,247.675 680.115,254.332C674.448,260.988 667.792,266.07 660.146,269.578C652.501,273.086 644.181,274.84 635.186,274.84C629.609,274.84 623.942,273.94 618.186,272.141C612.429,270.342 607.302,268.004 602.805,265.125L602.805,335.285L624.392,335.285L624.392,339.602L535.344,339.602L535.344,335.285L548.836,335.285L548.836,169.331L533.455,156.108L602.805,131.822L602.805,158.537C610,151.161 617.736,145.315 626.011,140.997C634.286,136.68 642.202,134.521 649.757,134.521ZM616.027,264.586C623.223,264.586 629.024,260.088 633.432,251.093C637.839,242.099 640.043,229.686 640.043,213.855C640.043,195.686 637.929,182.103 633.702,173.109C629.474,164.114 622.953,159.616 614.138,159.616C610.72,159.616 606.942,160.516 602.805,162.315L602.805,260.538C606.582,263.236 610.99,264.586 616.027,264.586Z" style="fill:white;fill-rule:nonzero;"/><path d="M826.775,134.521C840.807,134.521 852.32,140.143 861.315,151.386C870.31,162.63 874.807,178.326 874.807,198.474C874.807,209.987 873.278,220.511 870.22,230.046C867.162,239.58 862.799,247.675 857.132,254.332C851.466,260.988 844.809,266.07 837.164,269.578C829.518,273.086 821.198,274.84 812.203,274.84C806.627,274.84 800.96,273.94 795.203,272.141C789.447,270.342 784.32,268.004 779.822,265.125L779.822,335.285L801.41,335.285L801.41,339.602L712.361,339.602L712.361,335.285L725.853,335.285L725.853,169.331L710.472,156.108L779.822,131.822L779.822,158.537C787.018,151.161 794.753,145.315 803.029,140.997C811.304,136.68 819.219,134.521 826.775,134.521ZM793.044,264.586C800.24,264.586 806.042,260.088 810.449,251.093C814.857,242.099 817.061,229.686 817.061,213.855C817.061,195.686 814.947,182.103 810.719,173.109C806.492,164.114 799.97,159.616 791.156,159.616C787.738,159.616 783.96,160.516 779.822,162.315L779.822,260.538C783.6,263.236 788.007,264.586 793.044,264.586Z" style="fill:white;fill-rule:nonzero;"/><path d="M968.173,274.84C958.639,274.84 949.329,273.176 940.244,269.848C931.16,266.52 923.154,261.707 916.228,255.411C909.302,249.115 903.815,241.559 899.768,232.744C895.72,223.929 893.696,214.305 893.696,203.871C893.696,194.516 895.495,185.566 899.093,177.021C902.691,168.476 907.818,161.056 914.474,154.759C921.13,148.463 929.046,143.516 938.22,139.918C947.395,136.32 957.289,134.521 967.903,134.521C978.877,134.521 989.086,136.14 998.531,139.378C1007.98,142.616 1016.12,147.294 1022.95,153.41C1029.79,159.526 1035.09,166.902 1038.87,175.537C1042.65,184.172 1044.54,193.617 1044.54,203.871C1044.54,213.765 1042.92,223.03 1039.68,231.665C1036.44,240.3 1031.63,247.855 1025.25,254.332C1018.86,260.808 1010.81,265.845 1001.09,269.443C991.38,273.041 980.406,274.84 968.173,274.84ZM998.396,265.125C1005.77,265.125 1009.46,260.538 1009.46,251.363C1009.46,245.787 1006.99,237.107 1002.04,225.323C997.091,213.54 990.885,201.352 983.419,188.76C975.954,176.167 968.308,165.598 960.483,157.053C952.657,148.508 945.956,144.235 940.379,144.235C936.961,144.235 934.308,145.405 932.419,147.743C930.53,150.082 929.585,153.32 929.585,157.458C929.585,163.754 932.104,172.929 937.141,184.982C942.178,197.035 948.474,209.223 956.03,221.546C963.586,233.868 971.231,244.212 978.967,252.578C986.702,260.943 993.179,265.125 998.396,265.125Z" style="fill:white;fill-rule:nonzero;"/><path d="M249.165,527.747C247.097,529.362 244.941,530.915 242.698,532.406C227.677,542.39 210.002,547.382 189.674,547.382C175.462,547.382 161.97,544.818 149.197,539.691C136.425,534.564 125.361,527.324 116.006,517.969C106.652,508.614 99.366,497.551 94.149,484.778C90.911,476.852 88.678,468.613 87.45,460.063C118.939,488.543 157.325,509.536 199.788,520.221C202.033,522.024 204.193,523.567 206.269,524.85C214.274,529.797 221.066,532.271 226.642,532.271C232.47,532.271 236.909,530.536 239.961,527.066C243.014,527.345 246.082,527.572 249.165,527.747Z" style="fill:white;fill-rule:nonzero;"/><path d="M318.958,419.529L367.501,403.285L367.501,437.016C375.056,427.122 382.972,419.161 391.247,413.135C399.522,407.108 406.718,404.095 412.835,404.095C414.633,404.095 416.343,404.365 417.962,404.904L417.962,476.413L417.692,476.413C405.998,463.461 396.149,453.926 388.144,447.81C380.138,441.693 373.257,439.085 367.501,439.984L367.501,537.668L387.739,537.668L387.739,541.985L300.04,541.985L300.04,537.668L313.532,537.668L313.532,520.021C345.318,504.617 335.473,468.347 318.958,419.529Z" style="fill:white;fill-rule:nonzero;"/><path d="M542.899,404.095C544.698,404.095 546.407,404.365 548.026,404.904L548.026,476.413L547.756,476.413C536.063,463.461 526.214,453.926 518.209,447.81C510.203,441.693 503.322,439.085 497.565,439.984L497.565,537.668L517.804,537.668L517.804,541.985L430.105,541.985L430.105,537.668L443.597,537.668L443.597,439.714L428.216,426.492L497.565,403.285L497.565,437.016C505.121,427.122 513.037,419.161 521.312,413.135C529.587,407.108 536.783,404.095 542.899,404.095Z" style="fill:white;fill-rule:nonzero;"/><path d="M708.853,537.668L722.345,537.668L722.345,541.985L654.884,541.985L654.884,521.207C641.212,531.101 631.048,537.533 624.392,540.501C617.736,543.469 611.799,544.953 606.582,544.953C594.529,544.953 585.714,541.265 580.138,533.89C574.561,526.514 571.773,514.821 571.773,498.81L571.773,440.794L556.391,427.571L625.741,403.285L625.741,488.016C625.741,499.889 626.731,508.12 628.71,512.707C630.688,517.294 634.826,519.588 641.122,519.588C645.26,519.588 649.847,518.689 654.884,516.89L654.884,439.444L639.503,426.222L708.853,401.936L708.853,537.668Z" style="fill:white;fill-rule:nonzero;"/></g></g></g><defs><radialGradient id="_Radial1" cx="0" cy="0" r="1" gradientUnits="userSpaceOnUse" gradientTransform="matrix(112.326,-260.672,260.672,112.326,174.205,271.888)"><stop offset="0" style="stop-color:rgb(255,255,105);stop-opacity:0.2"/><stop offset="1" style="stop-color:rgb(255,255,105);stop-opacity:0.2"/></radialGradient><radialGradient id="_Radial2" cx="0" cy="0" r="1" gradientUnits="userSpaceOnUse" gradientTransform="matrix(121.731,-282.497,282.497,121.731,101.332,271.708)"><stop offset="0" style="stop-color:rgb(255,255,105);stop-opacity:1"/><stop offset="1" style="stop-color:rgb(255,255,105);stop-opacity:1"/></radialGradient></defs></svg>