<?xml version="1.0" encoding="UTF-8" standalone="no"?>
<!DOCTYPE svg PUBLIC "-//W3C//DTD SVG 1.1//EN" "http://www.w3.org/Graphics/SVG/1.1/DTD/svg11.dtd">
<svg width="100%" height="100%" viewBox="0 0 1080 1080" version="1.1" xmlns="http://www.w3.org/2000/svg" xmlns:xlink="http://www.w3.org/1999/xlink" xml:space="preserve" xmlns:serif="http://www.serif.com/" style="fill-rule:evenodd;clip-rule:evenodd;stroke-linejoin:round;stroke-miterlimit:2;">
    <g transform="matrix(1,0,0,1,-1130,0)">
        <rect id="light" x="1130" y="0" width="1080" height="1080" style="fill:none;"/>
        <g id="light1" serif:id="light">
            <g transform="matrix(2.92396,0,0,2.92396,-14314.3,-2196.82)">
                <g opacity="0.3">
                    <g transform="matrix(0.203421,0,0,0.203421,4218.43,880.45)">
                        <circle cx="5310.35" cy="1098.93" r="14.73"/>
                    </g>
                    <g transform="matrix(0.203421,0,0,0.203421,4410.43,880.45)">
                        <circle cx="5310.35" cy="1098.93" r="14.73"/>
                    </g>
                    <g transform="matrix(0.203421,0,0,0.203421,4218.43,688.45)">
                        <circle cx="5310.35" cy="1098.93" r="14.73"/>
                    </g>
                    <g transform="matrix(0.203421,0,0,0.203421,4410.43,688.45)">
                        <circle cx="5310.35" cy="1098.93" r="14.73"/>
                    </g>
                    <g transform="matrix(0.203421,0,0,0.203421,4314.43,880.45)">
                        <circle cx="5310.35" cy="1098.93" r="14.73"/>
                    </g>
                    <g transform="matrix(0.203421,0,0,0.203421,4506.43,880.45)">
                        <circle cx="5310.35" cy="1098.93" r="14.73"/>
                    </g>
                    <g transform="matrix(0.203421,0,0,0.203421,4314.43,688.45)">
                        <circle cx="5310.35" cy="1098.93" r="14.73"/>
                    </g>
                    <g transform="matrix(0.203421,0,0,0.203421,4506.43,688.45)">
                        <circle cx="5310.35" cy="1098.93" r="14.73"/>
                    </g>
                    <g transform="matrix(0.203421,0,0,0.203421,4218.43,784.45)">
                        <circle cx="5310.35" cy="1098.93" r="14.73"/>
                    </g>
                    <g transform="matrix(0.203421,0,0,0.203421,4410.43,784.45)">
                        <circle cx="5310.35" cy="1098.93" r="14.73"/>
                    </g>
                    <g transform="matrix(0.203421,0,0,0.203421,4218.43,592.45)">
                        <circle cx="5310.35" cy="1098.93" r="14.73"/>
                    </g>
                    <g transform="matrix(0.203421,0,0,0.203421,4410.43,592.45)">
                        <circle cx="5310.35" cy="1098.93" r="14.73"/>
                    </g>
                    <g transform="matrix(0.203421,0,0,0.203421,4314.43,784.45)">
                        <circle cx="5310.35" cy="1098.93" r="14.73"/>
                    </g>
                    <g transform="matrix(0.203421,0,0,0.203421,4506.43,784.45)">
                        <circle cx="5310.35" cy="1098.93" r="14.73"/>
                    </g>
                    <g transform="matrix(0.203421,0,0,0.203421,4314.43,592.45)">
                        <circle cx="5310.35" cy="1098.93" r="14.73"/>
                    </g>
                    <g transform="matrix(0.203421,0,0,0.203421,4506.43,592.45)">
                        <circle cx="5310.35" cy="1098.93" r="14.73"/>
                    </g>
                    <g transform="matrix(0.203421,0,0,0.203421,4218.43,832.45)">
                        <circle cx="5310.35" cy="1098.93" r="14.73"/>
                    </g>
                    <g transform="matrix(0.203421,0,0,0.203421,4410.43,832.45)">
                        <circle cx="5310.35" cy="1098.93" r="14.73"/>
                    </g>
                    <g transform="matrix(0.203421,0,0,0.203421,4218.43,640.45)">
                        <circle cx="5310.35" cy="1098.93" r="14.73"/>
                    </g>
                    <g transform="matrix(0.203421,0,0,0.203421,4410.43,640.45)">
                        <circle cx="5310.35" cy="1098.93" r="14.73"/>
                    </g>
                    <g transform="matrix(0.203421,0,0,0.203421,4314.43,832.45)">
                        <circle cx="5310.35" cy="1098.93" r="14.73"/>
                    </g>
                    <g transform="matrix(0.203421,0,0,0.203421,4506.43,832.45)">
                        <circle cx="5310.35" cy="1098.93" r="14.73"/>
                    </g>
                    <g transform="matrix(0.203421,0,0,0.203421,4314.43,640.45)">
                        <circle cx="5310.35" cy="1098.93" r="14.73"/>
                    </g>
                    <g transform="matrix(0.203421,0,0,0.203421,4506.43,640.45)">
                        <circle cx="5310.35" cy="1098.93" r="14.73"/>
                    </g>
                    <g transform="matrix(0.203421,0,0,0.203421,4218.43,736.45)">
                        <circle cx="5310.35" cy="1098.93" r="14.73"/>
                    </g>
                    <g transform="matrix(0.203421,0,0,0.203421,4410.43,736.45)">
                        <circle cx="5310.35" cy="1098.93" r="14.73"/>
                    </g>
                    <g transform="matrix(0.203421,0,0,0.203421,4218.43,544.45)">
                        <circle cx="5310.35" cy="1098.93" r="14.73"/>
                    </g>
                    <g transform="matrix(0.203421,0,0,0.203421,4410.43,544.45)">
                        <circle cx="5310.35" cy="1098.93" r="14.73"/>
                    </g>
                    <g transform="matrix(0.203421,0,0,0.203421,4314.43,736.45)">
                        <circle cx="5310.35" cy="1098.93" r="14.73"/>
                    </g>
                    <g transform="matrix(0.203421,0,0,0.203421,4506.43,736.45)">
                        <circle cx="5310.35" cy="1098.93" r="14.73"/>
                    </g>
                    <g transform="matrix(0.203421,0,0,0.203421,4314.43,544.45)">
                        <circle cx="5310.35" cy="1098.93" r="14.73"/>
                    </g>
                    <g transform="matrix(0.203421,0,0,0.203421,4506.43,544.45)">
                        <circle cx="5310.35" cy="1098.93" r="14.73"/>
                    </g>
                    <g transform="matrix(0.203421,0,0,0.203421,4266.43,880.45)">
                        <circle cx="5310.35" cy="1098.93" r="14.73"/>
                    </g>
                    <g transform="matrix(0.203421,0,0,0.203421,4458.43,880.45)">
                        <circle cx="5310.35" cy="1098.93" r="14.73"/>
                    </g>
                    <g transform="matrix(0.203421,0,0,0.203421,4266.43,688.45)">
                        <circle cx="5310.35" cy="1098.93" r="14.73"/>
                    </g>
                    <g transform="matrix(0.203421,0,0,0.203421,4458.43,688.45)">
                        <circle cx="5310.35" cy="1098.93" r="14.73"/>
                    </g>
                    <g transform="matrix(0.203421,0,0,0.203421,4362.43,880.45)">
                        <circle cx="5310.35" cy="1098.93" r="14.73"/>
                    </g>
                    <g transform="matrix(0.203421,0,0,0.203421,4554.43,880.45)">
                        <circle cx="5310.35" cy="1098.93" r="14.73"/>
                    </g>
                    <g transform="matrix(0.203421,0,0,0.203421,4362.43,688.45)">
                        <circle cx="5310.35" cy="1098.93" r="14.73"/>
                    </g>
                    <g transform="matrix(0.203421,0,0,0.203421,4554.43,688.45)">
                        <circle cx="5310.35" cy="1098.93" r="14.73"/>
                    </g>
                    <g transform="matrix(0.203421,0,0,0.203421,4266.43,784.45)">
                        <circle cx="5310.35" cy="1098.93" r="14.73"/>
                    </g>
                    <g transform="matrix(0.203421,0,0,0.203421,4458.43,784.45)">
                        <circle cx="5310.35" cy="1098.93" r="14.73"/>
                    </g>
                    <g transform="matrix(0.203421,0,0,0.203421,4266.43,592.45)">
                        <circle cx="5310.35" cy="1098.93" r="14.73"/>
                    </g>
                    <g transform="matrix(0.203421,0,0,0.203421,4458.43,592.45)">
                        <circle cx="5310.35" cy="1098.93" r="14.73"/>
                    </g>
                    <g transform="matrix(0.203421,0,0,0.203421,4362.43,784.45)">
                        <circle cx="5310.35" cy="1098.93" r="14.73"/>
                    </g>
                    <g transform="matrix(0.203421,0,0,0.203421,4554.43,784.45)">
                        <circle cx="5310.35" cy="1098.93" r="14.73"/>
                    </g>
                    <g transform="matrix(0.203421,0,0,0.203421,4362.43,592.45)">
                        <circle cx="5310.35" cy="1098.93" r="14.73"/>
                    </g>
                    <g transform="matrix(0.203421,0,0,0.203421,4554.43,592.45)">
                        <circle cx="5310.35" cy="1098.93" r="14.73"/>
                    </g>
                    <g transform="matrix(0.203421,0,0,0.203421,4266.43,832.45)">
                        <circle cx="5310.35" cy="1098.93" r="14.73"/>
                    </g>
                    <g transform="matrix(0.203421,0,0,0.203421,4458.43,832.45)">
                        <circle cx="5310.35" cy="1098.93" r="14.73"/>
                    </g>
                    <g transform="matrix(0.203421,0,0,0.203421,4266.43,640.45)">
                        <circle cx="5310.35" cy="1098.93" r="14.73"/>
                    </g>
                    <g transform="matrix(0.203421,0,0,0.203421,4458.43,640.45)">
                        <circle cx="5310.35" cy="1098.93" r="14.73"/>
                    </g>
                    <g transform="matrix(0.203421,0,0,0.203421,4362.43,832.45)">
                        <circle cx="5310.35" cy="1098.93" r="14.73"/>
                    </g>
                    <g transform="matrix(0.203421,0,0,0.203421,4554.43,832.45)">
                        <circle cx="5310.35" cy="1098.93" r="14.73"/>
                    </g>
                    <g transform="matrix(0.203421,0,0,0.203421,4362.43,640.45)">
                        <circle cx="5310.35" cy="1098.93" r="14.73"/>
                    </g>
                    <g transform="matrix(0.203421,0,0,0.203421,4554.43,640.45)">
                        <circle cx="5310.35" cy="1098.93" r="14.73"/>
                    </g>
                    <g transform="matrix(0.203421,0,0,0.203421,4266.43,736.45)">
                        <circle cx="5310.35" cy="1098.93" r="14.73"/>
                    </g>
                    <g transform="matrix(0.203421,0,0,0.203421,4458.43,736.45)">
                        <circle cx="5310.35" cy="1098.93" r="14.73"/>
                    </g>
                    <g transform="matrix(0.203421,0,0,0.203421,4266.43,544.45)">
                        <circle cx="5310.35" cy="1098.93" r="14.73"/>
                    </g>
                    <g transform="matrix(0.203421,0,0,0.203421,4458.43,544.45)">
                        <circle cx="5310.35" cy="1098.93" r="14.73"/>
                    </g>
                    <g transform="matrix(0.203421,0,0,0.203421,4362.43,736.45)">
                        <circle cx="5310.35" cy="1098.93" r="14.73"/>
                    </g>
                    <g transform="matrix(0.203421,0,0,0.203421,4554.43,736.45)">
                        <circle cx="5310.35" cy="1098.93" r="14.73"/>
                    </g>
                    <g transform="matrix(0.203421,0,0,0.203421,4362.43,544.45)">
                        <circle cx="5310.35" cy="1098.93" r="14.73"/>
                    </g>
                    <g transform="matrix(0.203421,0,0,0.203421,4554.43,544.45)">
                        <circle cx="5310.35" cy="1098.93" r="14.73"/>
                    </g>
                </g>
            </g>
        </g>
    </g>
</svg>
