<?xml version="1.0" encoding="UTF-8" standalone="no"?>
<!DOCTYPE svg PUBLIC "-//W3C//DTD SVG 1.1//EN" "http://www.w3.org/Graphics/SVG/1.1/DTD/svg11.dtd">
<svg width="100%" height="100%" viewBox="0 0 1045 548" version="1.1" xmlns="http://www.w3.org/2000/svg" xmlns:xlink="http://www.w3.org/1999/xlink" xml:space="preserve" xmlns:serif="http://www.serif.com/" style="fill-rule:evenodd;clip-rule:evenodd;stroke-linejoin:round;stroke-miterlimit:2;">
    <g transform="matrix(1,0,0,1,-16,-229)">
        <g transform="matrix(0.92274,0,0,0.92274,81.9374,38.8642)">
            <g id="dark">
                <g opacity="0.2">
                    <g id="moon">
                        <path d="M214.93,206.79C372.685,206.79 235.933,332.771 235.933,490.525C235.933,648.279 372.685,778.452 214.93,778.452C57.176,778.452 -70.9,650.375 -70.9,492.621C-70.9,334.867 57.176,206.79 214.93,206.79Z" style="fill:url(#_Radial1);"/>
                    </g>
                </g>
                <g transform="matrix(1.08373,0,0,1.08373,-88.7979,-42.1182)">
                    <g id="yellow-text">
                        <path d="M328.25,355.187C325.427,355.886 322.346,356.235 319.008,356.235C309.654,356.235 302.323,353.492 297.016,348.005C291.709,342.518 289.055,335.187 289.055,326.013C289.055,317.018 291.709,309.777 297.016,304.29C302.323,298.803 309.654,296.06 319.008,296.06C325.844,296.06 331.691,297.634 336.548,300.782C339.688,302.817 342.17,305.191 343.994,307.903C339.867,322.152 334.178,338.01 328.25,355.187ZM299.824,501.141L278.532,501.141L278.532,496.824L292.024,496.824L292.024,398.331L276.643,385.108L323.67,368.64C311.447,405.189 299.642,446.969 299.642,491.491C299.642,494.721 299.704,497.938 299.824,501.141ZM329.532,749.021L329.532,668.714L314.151,655.492L334.958,648.529C351.473,697.347 361.318,733.617 329.532,749.021ZM103.45,689.063C102.699,683.836 102.324,678.492 102.324,673.032C102.324,656.301 105.966,640.156 113.252,624.595C120.538,609.034 131.692,596.261 146.713,586.277C161.734,576.293 179.409,571.301 199.737,571.301C214.129,571.301 227.666,573.909 240.349,579.126C253.031,584.343 264.05,591.629 273.405,600.983C282.759,610.338 290,621.357 295.127,634.039C300.254,646.722 302.817,660.259 302.817,674.651C302.817,691.381 299.22,707.527 292.024,723.088C285.902,736.325 276.949,747.545 265.165,756.747C262.082,756.572 259.014,756.345 255.961,756.066C259.315,752.251 260.992,746.341 260.992,738.334C260.992,728.08 259.103,716.477 255.325,703.524C251.547,690.572 246.465,677.709 240.079,664.936C233.692,652.164 226.092,639.751 217.277,627.698C208.462,615.645 199.152,605.751 189.348,598.015C179.544,590.28 170.594,586.412 162.499,586.412C157.102,586.412 152.739,588.436 149.411,592.483C146.083,596.531 144.419,602.153 144.419,609.349C144.419,619.603 146.353,631.206 150.221,644.158C154.089,657.111 159.8,671.053 167.356,685.984C174.912,700.916 183.951,714.723 194.475,727.405C202.27,736.799 209.374,744.071 215.788,749.221C173.325,738.536 134.939,717.543 103.45,689.063ZM263.96,306.854L263.96,369.188L263.69,369.188C249.478,348.32 236.346,333.433 224.293,324.528C212.24,315.624 199.018,311.171 184.626,311.171L183.277,311.171L183.277,398.601C186.875,398.241 191.507,396.847 197.174,394.418C202.84,391.989 208.777,388.167 214.983,382.95C221.19,377.733 225.912,372.426 229.15,367.029L229.42,367.029L229.42,434.22L229.15,434.22C227.171,430.802 223.888,426.799 219.301,422.212C214.713,417.625 208.957,413.397 202.031,409.529C195.105,405.662 188.853,403.458 183.277,402.918L183.277,496.824L214.309,496.824L214.309,501.141L102.324,501.141L102.324,496.824L123.911,496.824L123.911,321.425L99.895,306.854L263.96,306.854Z" style="fill:url(#_Radial2);"/>
                    </g>
                </g>
                <g id="text-90-" serif:id="text 90%" opacity="0.9">
                    <g transform="matrix(24.3698,0,0,24.3698,-7883.88,-8418.02)">
                        <g id="text-symbol" serif:id="text symbol">
                            <g id="text">
                                <g transform="matrix(12,0,0,12,332.025,365.986)">
                                    <path d="M0.262,-0.716C0.265,-0.711 0.268,-0.705 0.27,-0.699C0.277,-0.681 0.28,-0.664 0.28,-0.649C0.28,-0.615 0.27,-0.588 0.25,-0.567C0.238,-0.554 0.222,-0.546 0.203,-0.541C0.225,-0.605 0.246,-0.663 0.262,-0.716ZM0.186,-0.491L0.269,-0.52L0.269,-0.016L0.319,-0.016L0.319,0L0.098,-0C0.097,-0.012 0.097,-0.024 0.097,-0.036C0.097,-0.201 0.141,-0.356 0.186,-0.491Z" style="fill:white;fill-rule:nonzero;"/>
                                </g>
                                <g transform="matrix(12,0,0,12,336.069,365.986)">
                                    <path d="M0.019,-0L0.019,-0.016L0.069,-0.016L0.069,-0.611L0.012,-0.66L0.269,-0.75L0.269,-0.016L0.319,-0.016L0.319,-0L0.019,-0Z" style="fill:white;fill-rule:nonzero;"/>
                                </g>
                                <g transform="matrix(12,0,0,12,340.113,365.986)">
                                    <path d="M0.169,-0.537C0.134,-0.537 0.107,-0.547 0.088,-0.568C0.068,-0.588 0.058,-0.615 0.058,-0.649C0.058,-0.682 0.068,-0.709 0.088,-0.73C0.107,-0.75 0.134,-0.76 0.169,-0.76C0.194,-0.76 0.216,-0.754 0.234,-0.743C0.252,-0.731 0.264,-0.716 0.271,-0.699C0.277,-0.681 0.28,-0.664 0.28,-0.649C0.28,-0.615 0.27,-0.588 0.251,-0.568C0.231,-0.547 0.204,-0.537 0.169,-0.537ZM0.019,-0L0.019,-0.016L0.069,-0.016L0.069,-0.381L0.012,-0.43L0.269,-0.52L0.269,-0.016L0.319,-0.016L0.319,-0L0.019,-0Z" style="fill:white;fill-rule:nonzero;"/>
                                </g>
                                <g transform="matrix(12,0,0,12,344.157,365.986)">
                                    <path d="M0.443,-0.51C0.495,-0.51 0.538,-0.489 0.571,-0.448C0.604,-0.406 0.621,-0.348 0.621,-0.273C0.621,-0.23 0.615,-0.191 0.604,-0.156C0.593,-0.121 0.576,-0.091 0.556,-0.066C0.535,-0.041 0.51,-0.023 0.482,-0.01C0.453,0.004 0.422,0.01 0.389,0.01C0.368,0.01 0.347,0.007 0.326,-0C0.305,-0.007 0.286,-0.015 0.269,-0.026L0.269,0.234L0.349,0.234L0.349,0.25L0.019,0.25L0.019,0.234L0.069,0.234L0.069,-0.381L0.012,-0.43L0.269,-0.52L0.269,-0.421C0.296,-0.448 0.324,-0.47 0.355,-0.486C0.386,-0.502 0.415,-0.51 0.443,-0.51ZM0.318,-0.028C0.345,-0.028 0.366,-0.045 0.383,-0.078C0.399,-0.111 0.407,-0.157 0.407,-0.216C0.407,-0.283 0.399,-0.334 0.384,-0.367C0.368,-0.4 0.344,-0.417 0.311,-0.417C0.298,-0.417 0.284,-0.414 0.269,-0.407L0.269,-0.043C0.283,-0.033 0.299,-0.028 0.318,-0.028Z" style="fill:white;fill-rule:nonzero;"/>
                                </g>
                                <g transform="matrix(12,0,0,12,352.029,365.986)">
                                    <path d="M0.443,-0.51C0.495,-0.51 0.538,-0.489 0.571,-0.448C0.604,-0.406 0.621,-0.348 0.621,-0.273C0.621,-0.23 0.615,-0.191 0.604,-0.156C0.593,-0.121 0.576,-0.091 0.556,-0.066C0.535,-0.041 0.51,-0.023 0.482,-0.01C0.453,0.004 0.422,0.01 0.389,0.01C0.368,0.01 0.347,0.007 0.326,-0C0.305,-0.007 0.286,-0.015 0.269,-0.026L0.269,0.234L0.349,0.234L0.349,0.25L0.019,0.25L0.019,0.234L0.069,0.234L0.069,-0.381L0.012,-0.43L0.269,-0.52L0.269,-0.421C0.296,-0.448 0.324,-0.47 0.355,-0.486C0.386,-0.502 0.415,-0.51 0.443,-0.51ZM0.318,-0.028C0.345,-0.028 0.366,-0.045 0.383,-0.078C0.399,-0.111 0.407,-0.157 0.407,-0.216C0.407,-0.283 0.399,-0.334 0.384,-0.367C0.368,-0.4 0.344,-0.417 0.311,-0.417C0.298,-0.417 0.284,-0.414 0.269,-0.407L0.269,-0.043C0.283,-0.033 0.299,-0.028 0.318,-0.028Z" style="fill:white;fill-rule:nonzero;"/>
                                </g>
                                <g transform="matrix(12,0,0,12,359.901,365.986)">
                                    <path d="M0.311,0.01C0.276,0.01 0.241,0.004 0.208,-0.009C0.174,-0.021 0.144,-0.039 0.119,-0.062C0.093,-0.085 0.073,-0.113 0.058,-0.146C0.043,-0.179 0.035,-0.214 0.035,-0.253C0.035,-0.288 0.042,-0.321 0.055,-0.353C0.068,-0.384 0.087,-0.412 0.112,-0.435C0.137,-0.458 0.166,-0.477 0.2,-0.49C0.234,-0.503 0.271,-0.51 0.31,-0.51C0.351,-0.51 0.389,-0.504 0.424,-0.492C0.459,-0.48 0.489,-0.463 0.514,-0.44C0.539,-0.417 0.559,-0.39 0.573,-0.358C0.587,-0.326 0.594,-0.291 0.594,-0.253C0.594,-0.216 0.588,-0.182 0.576,-0.15C0.564,-0.118 0.546,-0.09 0.523,-0.066C0.499,-0.042 0.469,-0.023 0.433,-0.01C0.397,0.003 0.356,0.01 0.311,0.01ZM0.423,-0.026C0.45,-0.026 0.464,-0.043 0.464,-0.077C0.464,-0.098 0.455,-0.13 0.437,-0.174C0.418,-0.217 0.395,-0.262 0.368,-0.309C0.34,-0.356 0.312,-0.395 0.283,-0.427C0.254,-0.458 0.229,-0.474 0.208,-0.474C0.195,-0.474 0.186,-0.47 0.179,-0.461C0.171,-0.452 0.168,-0.44 0.168,-0.425C0.168,-0.402 0.177,-0.368 0.196,-0.323C0.215,-0.278 0.238,-0.233 0.266,-0.188C0.294,-0.142 0.322,-0.103 0.351,-0.073C0.38,-0.042 0.404,-0.026 0.423,-0.026Z" style="fill:white;fill-rule:nonzero;"/>
                                </g>
                                <g transform="matrix(12,0,0,12,324.057,377.986)">
                                    <path d="M0.633,-0.053C0.626,-0.047 0.618,-0.041 0.609,-0.035C0.554,0.002 0.488,0.02 0.413,0.02C0.36,0.02 0.31,0.01 0.263,-0.009C0.216,-0.027 0.175,-0.054 0.14,-0.089C0.105,-0.124 0.078,-0.165 0.059,-0.212C0.047,-0.241 0.039,-0.272 0.034,-0.304C0.151,-0.198 0.293,-0.12 0.45,-0.081C0.459,-0.074 0.467,-0.068 0.474,-0.063C0.504,-0.045 0.529,-0.036 0.55,-0.036C0.572,-0.036 0.588,-0.042 0.599,-0.055C0.611,-0.054 0.622,-0.053 0.633,-0.053Z" style="fill:white;fill-rule:nonzero;"/>
                                </g>
                                <g transform="matrix(12,0,0,12,333.693,377.986)">
                                    <path d="M0.089,-0.454L0.269,-0.514L0.269,-0.389C0.297,-0.426 0.326,-0.455 0.357,-0.477C0.388,-0.5 0.414,-0.511 0.437,-0.511C0.444,-0.511 0.45,-0.51 0.456,-0.508L0.456,-0.243L0.455,-0.243C0.412,-0.291 0.375,-0.326 0.345,-0.349C0.316,-0.372 0.29,-0.381 0.269,-0.378L0.269,-0.016L0.344,-0.016L0.344,0L0.019,0L0.019,-0.016L0.069,-0.016L0.069,-0.081C0.187,-0.138 0.15,-0.273 0.089,-0.454Z" style="fill:white;fill-rule:nonzero;"/>
                                </g>
                                <g transform="matrix(12,0,0,12,339.477,377.986)">
                                    <path d="M0.437,-0.511C0.444,-0.511 0.45,-0.51 0.456,-0.508L0.456,-0.243L0.455,-0.243C0.412,-0.291 0.375,-0.326 0.346,-0.349C0.316,-0.372 0.29,-0.381 0.269,-0.378L0.269,-0.016L0.344,-0.016L0.344,-0L0.019,-0L0.019,-0.016L0.069,-0.016L0.069,-0.379L0.012,-0.428L0.269,-0.514L0.269,-0.389C0.297,-0.426 0.326,-0.455 0.357,-0.478C0.388,-0.5 0.414,-0.511 0.437,-0.511Z" style="fill:white;fill-rule:nonzero;"/>
                                </g>
                                <g transform="matrix(12,0,0,12,345.261,377.986)">
                                    <path d="M0.57,-0.016L0.62,-0.016L0.62,-0L0.37,-0L0.37,-0.077C0.319,-0.04 0.282,-0.016 0.257,-0.006C0.232,0.006 0.21,0.011 0.191,0.011C0.146,0.011 0.114,-0.003 0.093,-0.03C0.072,-0.057 0.062,-0.101 0.062,-0.16L0.062,-0.375L0.005,-0.424L0.262,-0.514L0.262,-0.2C0.262,-0.156 0.266,-0.126 0.273,-0.109C0.28,-0.092 0.296,-0.083 0.319,-0.083C0.334,-0.083 0.351,-0.086 0.37,-0.093L0.37,-0.38L0.313,-0.429L0.57,-0.519L0.57,-0.016Z" style="fill:white;fill-rule:nonzero;"/>
                                </g>
                            </g>
                        </g>
                    </g>
                </g>
            </g>
        </g>
    </g>
    <defs>
        <radialGradient id="_Radial1" cx="0" cy="0" r="1" gradientUnits="userSpaceOnUse" gradientTransform="matrix(121.731,-282.497,282.497,121.731,117.332,500.708)"><stop offset="0" style="stop-color:rgb(255,255,105);stop-opacity:1"/><stop offset="1" style="stop-color:rgb(255,255,105);stop-opacity:1"/></radialGradient>
        <radialGradient id="_Radial2" cx="0" cy="0" r="1" gradientUnits="userSpaceOnUse" gradientTransform="matrix(121.731,-282.497,282.497,121.731,117.332,500.708)"><stop offset="0" style="stop-color:rgb(255,255,105);stop-opacity:1"/><stop offset="1" style="stop-color:rgb(255,255,105);stop-opacity:1"/></radialGradient>
    </defs>
</svg>
