<?xml version="1.0" encoding="UTF-8" standalone="no"?>
<!DOCTYPE svg PUBLIC "-//W3C//DTD SVG 1.1//EN" "http://www.w3.org/Graphics/SVG/1.1/DTD/svg11.dtd">
<svg width="100%" height="100%" viewBox="0 0 1045 547" version="1.1" xmlns="http://www.w3.org/2000/svg" xmlns:xlink="http://www.w3.org/1999/xlink" xml:space="preserve" xmlns:serif="http://www.serif.com/" style="fill-rule:evenodd;clip-rule:evenodd;stroke-linejoin:round;stroke-miterlimit:2;">
    <g transform="matrix(1,0,0,1,-1146,-229)">
        <g transform="matrix(0.92274,0,0,0.92274,1211.94,38.8642)">
            <g id="light">
                <g id="moon-90-" serif:id="moon 90%" opacity="0.9">
                    <g id="moon">
                        <path d="M214.93,206.79C372.685,206.79 235.933,332.771 235.933,490.525C235.933,648.279 372.685,778.452 214.93,778.452C57.176,778.452 -70.9,650.375 -70.9,492.621C-70.9,334.867 57.176,206.79 214.93,206.79Z" style="fill:rgb(238,238,113);"/>
                    </g>
                </g>
                <g id="text-79-" serif:id="text 79%" opacity="0.79">
                    <g transform="matrix(0.998826,0,0,0.998826,-1226.29,36.2639)">
                        <path d="M1426.25,254.515L1426.25,322.068L1425.95,322.068C1410.55,299.453 1396.32,283.32 1383.26,273.67C1370.19,264.019 1355.87,259.194 1340.27,259.194L1338.81,259.194L1338.81,353.944C1342.7,353.554 1347.73,352.043 1353.87,349.411C1360.01,346.779 1366.44,342.636 1373.17,336.983C1379.89,331.329 1385.01,325.578 1388.52,319.729L1388.81,319.729L1388.81,392.546L1388.52,392.546C1386.38,388.842 1382.82,384.504 1377.85,379.532C1372.88,374.561 1366.64,369.979 1359.13,365.788C1351.62,361.596 1344.85,359.208 1338.81,358.623L1338.81,460.391L1372.44,460.391L1372.44,465.07L1251.08,465.07L1251.08,460.391L1274.47,460.391L1274.47,270.307L1248.44,254.515L1426.25,254.515Z" style="fill-rule:nonzero;"/>
                        <path d="M1485.9,308.031C1475.76,308.031 1467.82,305.058 1462.07,299.112C1456.32,293.166 1453.44,285.221 1453.44,275.278C1453.44,265.53 1456.32,257.683 1462.07,251.737C1467.82,245.791 1475.76,242.818 1485.9,242.818C1493.31,242.818 1499.65,244.524 1504.91,247.935C1510.17,251.347 1513.73,255.636 1515.58,260.803C1517.44,265.969 1518.36,270.794 1518.36,275.278C1518.36,285.221 1515.49,293.166 1509.74,299.112C1503.98,305.058 1496.04,308.031 1485.9,308.031ZM1442.04,465.07L1442.04,460.391L1456.66,460.391L1456.66,353.652L1439.99,339.322L1515.15,313.003L1515.15,460.391L1529.77,460.391L1529.77,465.07L1442.04,465.07Z" style="fill-rule:nonzero;"/>
                        <path d="M1540.59,465.07L1540.59,460.391L1555.21,460.391L1555.21,286.391L1538.54,272.061L1613.7,245.742L1613.7,460.391L1628.32,460.391L1628.32,465.07L1540.59,465.07Z" style="fill-rule:nonzero;"/>
                        <path d="M1683.01,308.031C1672.87,308.031 1664.92,305.058 1659.17,299.112C1653.42,293.166 1650.54,285.221 1650.54,275.278C1650.54,265.53 1653.42,257.683 1659.17,251.737C1664.92,245.791 1672.87,242.818 1683.01,242.818C1690.41,242.818 1696.75,244.524 1702.01,247.935C1707.28,251.347 1710.84,255.636 1712.69,260.803C1714.54,265.969 1715.47,270.794 1715.47,275.278C1715.47,285.221 1712.59,293.166 1706.84,299.112C1701.09,305.058 1693.14,308.031 1683.01,308.031ZM1639.14,465.07L1639.14,460.391L1653.76,460.391L1653.76,353.652L1637.09,339.322L1712.25,313.003L1712.25,460.391L1726.87,460.391L1726.87,465.07L1639.14,465.07Z" style="fill-rule:nonzero;"/>
                        <path d="M1861.68,315.927C1876.89,315.927 1889.37,322.02 1899.12,334.204C1908.86,346.389 1913.74,363.399 1913.74,385.235C1913.74,397.712 1912.08,409.117 1908.77,419.45C1905.45,429.783 1900.73,438.556 1894.58,445.769C1888.44,452.983 1881.23,458.49 1872.94,462.292C1864.66,466.094 1855.64,467.995 1845.89,467.995C1839.85,467.995 1833.71,467.02 1827.47,465.07C1821.23,463.121 1815.67,460.586 1810.8,457.467L1810.8,533.501L1834.19,533.501L1834.19,538.18L1737.69,538.18L1737.69,533.501L1752.31,533.501L1752.31,353.652L1735.64,339.322L1810.8,313.003L1810.8,341.954C1818.6,333.961 1826.98,327.625 1835.95,322.946C1844.92,318.267 1853.5,315.927 1861.68,315.927ZM1825.13,456.882C1832.93,456.882 1839.22,452.008 1843.99,442.26C1848.77,432.512 1851.16,419.06 1851.16,401.904C1851.16,382.213 1848.87,367.494 1844.28,357.746C1839.7,347.998 1832.63,343.124 1823.08,343.124C1819.38,343.124 1815.28,344.099 1810.8,346.048L1810.8,452.495C1814.89,455.42 1819.67,456.882 1825.13,456.882Z" style="fill-rule:nonzero;"/>
                        <path d="M2053.52,315.927C2068.73,315.927 2081.21,322.02 2090.95,334.204C2100.7,346.389 2105.58,363.399 2105.58,385.235C2105.58,397.712 2103.92,409.117 2100.61,419.45C2097.29,429.783 2092.56,438.556 2086.42,445.769C2080.28,452.983 2073.07,458.49 2064.78,462.292C2056.5,466.094 2047.48,467.995 2037.73,467.995C2031.69,467.995 2025.55,467.02 2019.31,465.07C2013.07,463.121 2007.51,460.586 2002.64,457.467L2002.64,533.501L2026.03,533.501L2026.03,538.18L1929.53,538.18L1929.53,533.501L1944.15,533.501L1944.15,353.652L1927.48,339.322L2002.64,313.003L2002.64,341.954C2010.44,333.961 2018.82,327.625 2027.79,322.946C2036.76,318.267 2045.34,315.927 2053.52,315.927ZM2016.97,456.882C2024.77,456.882 2031.05,452.008 2035.83,442.26C2040.61,432.512 2043,419.06 2043,401.904C2043,382.213 2040.71,367.494 2036.12,357.746C2031.54,347.998 2024.48,343.124 2014.92,343.124C2011.22,343.124 2007.12,344.099 2002.64,346.048L2002.64,452.495C2006.73,455.42 2011.51,456.882 2016.97,456.882Z" style="fill-rule:nonzero;"/>
                        <path d="M2206.76,467.995C2196.43,467.995 2186.34,466.191 2176.49,462.585C2166.65,458.978 2157.97,453.763 2150.47,446.939C2142.96,440.116 2137.01,431.927 2132.63,422.374C2128.24,412.821 2126.05,402.391 2126.05,391.084C2126.05,380.946 2128,371.247 2131.9,361.986C2135.8,352.725 2141.35,344.683 2148.57,337.86C2155.78,331.036 2164.36,325.675 2174.3,321.776C2184.24,317.877 2194.97,315.927 2206.47,315.927C2218.36,315.927 2229.42,317.682 2239.66,321.191C2249.89,324.7 2258.72,329.769 2266.12,336.398C2273.53,343.026 2279.28,351.02 2283.38,360.378C2287.47,369.736 2289.52,379.971 2289.52,391.084C2289.52,401.806 2287.77,411.847 2284.26,421.205C2280.75,430.563 2275.53,438.751 2268.61,445.769C2261.69,452.788 2252.97,458.247 2242.44,462.146C2231.91,466.045 2220.02,467.995 2206.76,467.995ZM2239.51,457.467C2247.51,457.467 2251.5,452.495 2251.5,442.553C2251.5,436.509 2248.82,427.102 2243.46,414.332C2238.1,401.563 2231.37,388.354 2223.28,374.707C2215.19,361.06 2206.91,349.606 2198.43,340.346C2189.95,331.085 2182.68,326.455 2176.64,326.455C2172.93,326.455 2170.06,327.722 2168.01,330.257C2165.97,332.791 2164.94,336.3 2164.94,340.784C2164.94,347.608 2167.67,357.551 2173.13,370.613C2178.59,383.675 2185.41,396.884 2193.6,410.238C2201.79,423.593 2210.08,434.803 2218.46,443.869C2226.84,452.934 2233.86,457.467 2239.51,457.467Z" style="fill-rule:nonzero;"/>
                        <path d="M1363.08,763.357C1347.68,763.357 1333.06,760.578 1319.21,755.022C1305.37,749.466 1293.38,741.619 1283.24,731.481C1273.11,721.343 1265.21,709.353 1259.56,695.511C1253.9,681.669 1251.08,666.95 1251.08,651.353C1251.08,633.222 1255.02,615.724 1262.92,598.86C1270.81,581.997 1282.9,568.155 1299.18,557.334C1315.46,546.514 1334.61,541.104 1356.64,541.104C1372.24,541.104 1386.91,543.931 1400.66,549.585C1414.4,555.239 1426.34,563.134 1436.48,573.272C1446.62,583.41 1454.46,595.351 1460.02,609.096C1465.58,622.84 1468.36,637.511 1468.36,653.108C1468.36,671.239 1464.46,688.736 1456.66,705.6C1448.86,722.464 1436.82,736.306 1420.54,747.126C1404.26,757.946 1385.11,763.357 1363.08,763.357ZM1403.14,746.98C1416.4,746.98 1423.03,738.694 1423.03,722.123C1423.03,711.01 1420.98,698.435 1416.89,684.398C1412.79,670.361 1407.29,656.422 1400.36,642.58C1393.44,628.738 1385.21,615.286 1375.65,602.223C1366.1,589.161 1356.01,578.439 1345.39,570.055C1334.76,561.672 1325.06,557.481 1316.29,557.481C1310.44,557.481 1305.71,559.674 1302.11,564.06C1298.5,568.447 1296.69,574.539 1296.69,582.338C1296.69,593.45 1298.79,606.025 1302.98,620.062C1307.17,634.099 1313.36,649.208 1321.55,665.39C1329.74,681.572 1339.54,696.535 1350.94,710.279C1362.35,724.024 1372.39,733.577 1381.06,738.938C1389.74,744.299 1397.1,746.98 1403.14,746.98Z" style="fill-rule:nonzero;"/>
                        <path d="M1604.92,608.072C1606.87,608.072 1608.73,608.365 1610.48,608.95L1610.48,686.445L1610.19,686.445C1597.52,672.408 1586.84,662.076 1578.17,655.447C1569.49,648.819 1562.03,645.992 1555.8,646.966L1555.8,752.829L1577.73,752.829L1577.73,757.508L1482.68,757.508L1482.68,752.829L1497.31,752.829L1497.31,646.674L1480.64,632.345L1555.8,607.195L1555.8,643.75C1563.98,633.027 1572.56,624.4 1581.53,617.869C1590.5,611.338 1598.3,608.072 1604.92,608.072Z" style="fill-rule:nonzero;"/>
                        <path d="M1745.88,608.072C1747.83,608.072 1749.68,608.365 1751.43,608.95L1751.43,686.445L1751.14,686.445C1738.47,672.408 1727.8,662.076 1719.12,655.447C1710.44,648.819 1702.99,645.992 1696.75,646.966L1696.75,752.829L1718.68,752.829L1718.68,757.508L1623.64,757.508L1623.64,752.829L1638.26,752.829L1638.26,646.674L1621.59,632.345L1696.75,607.195L1696.75,643.75C1704.94,633.027 1713.52,624.4 1722.48,617.869C1731.45,611.338 1739.25,608.072 1745.88,608.072Z" style="fill-rule:nonzero;"/>
                        <path d="M1925.73,752.829L1940.35,752.829L1940.35,757.508L1867.24,757.508L1867.24,734.99C1852.42,745.713 1841.41,752.683 1834.19,755.899C1826.98,759.116 1820.55,760.725 1814.89,760.725C1801.83,760.725 1792.28,756.728 1786.24,748.735C1780.19,740.741 1777.17,728.069 1777.17,710.718L1777.17,647.844L1760.5,633.514L1835.66,607.195L1835.66,699.02C1835.66,711.888 1836.73,720.807 1838.87,725.778C1841.02,730.75 1845.5,733.236 1852.33,733.236C1856.81,733.236 1861.78,732.261 1867.24,730.311L1867.24,646.382L1850.57,632.052L1925.73,605.733L1925.73,752.829Z" style="fill-rule:nonzero;"/>
                    </g>
                </g>
            </g>
        </g>
    </g>
</svg>
